<?xml version="1.0" encoding="utf-8" ?><!-- created by svgstack.com | Attribution is required. --><svg xmlns="http://www.w3.org/2000/svg" xmlns:xlink="http://www.w3.org/1999/xlink" width="1024" height="1024"><path fill="#FBE224" transform="scale(2 2)" d="M123.464 435.29C129.724 435.079 132.299 437.445 133.887 443.51C132.954 447.365 131.027 449.836 127.418 451.642C116.306 453.558 112.842 437.844 123.464 435.29Z"/><path fill="#9EBEF2" transform="scale(2 2)" d="M78.5627 131.31C90.6157 130.55 92.7166 145.273 82.1128 148.349C70.5138 149.256 67.6436 135.052 78.5627 131.31Z"/><path fill="#00E188" transform="scale(2 2)" d="M403.329 73.2781C411.007 72.7808 411.697 77.2421 411.754 83.8995C415.078 83.7928 420.279 82.8833 422.892 85.4001C425.372 87.789 425.261 92.4582 422.838 94.8435C420.332 97.3114 415.008 96.5076 411.754 96.4687C411.762 100.394 411.946 104.066 408.35 106.551C400.008 109.477 399.152 102.881 399.296 96.4687C391.504 97.0465 382.614 92.6154 389.494 85.8596C392.105 83.2958 395.947 83.8393 399.296 83.8995C399.254 79.3974 398.326 75.144 403.329 73.2781Z"/><path fill="#FBE224" transform="scale(2 2)" d="M430.958 405.295C433.808 405.069 436.647 406.008 437.563 409.029C438.74 412.908 434.662 434.228 433.368 436.559C429.447 443.627 419.873 434.989 415.602 432.342C399.689 422.615 394.437 419.125 415.164 411.08C420.31 409.083 425.564 406.492 430.958 405.295Z"/><defs><linearGradient id="gradient_0" gradientUnits="userSpaceOnUse" x1="247.53937" y1="158.79123" x2="253.9753" y2="454.32132"><stop offset="0" stop-color="#BBCBEA"/><stop offset="1" stop-color="#ECF0F8"/></linearGradient></defs><path fill="url(#gradient_0)" transform="scale(2 2)" d="M142.595 145.461C142.874 140.217 144.371 134.702 145.911 129.692C159.909 84.1455 203.065 51.0491 251.42 53.693C304.632 56.6025 352.296 101.923 352.437 155.854C357.06 157.844 361.499 161.915 365.269 165.252C418.923 212.742 433.469 289.712 405.539 354.557C395.947 376.828 382.573 395.598 364.273 411.249C337.486 434.156 310.146 447.917 275.45 452.896C205.951 462.869 134.376 431.746 101.505 368.103C74.22 315.275 74.3811 252.367 105.866 201.667C114.681 187.474 125.743 172.158 142.048 166.694C141.328 161.92 142.026 150.056 142.595 145.461Z"/><defs><linearGradient id="gradient_1" gradientUnits="userSpaceOnUse" x1="246.95612" y1="315.91251" x2="250.39328" y2="401.32193"><stop offset="0" stop-color="#0065E4"/><stop offset="1" stop-color="#0140F0"/></linearGradient></defs><path fill="url(#gradient_1)" transform="scale(2 2)" d="M131.835 313.718L132.037 314.128C130.541 315.917 128.306 317.977 127.372 320.077L127.436 320.686C128.956 321.883 143.321 321.907 145.791 321.617C147.454 321.421 147.414 318.768 148.641 317.71L148.386 318.089L148.472 318.17C145.95 324.378 140.978 333.337 140.835 340.118C138.773 348.701 139.153 365.978 139.489 375.596C165.891 374.939 191.429 376.174 217.529 376.253L381.045 376.252C380.808 393.056 373.017 397.292 357.141 397.462C340.12 397.645 323.079 397.48 306.056 397.481L141.739 397.487C118.784 397.49 117.961 389.456 117.998 368.725L117.994 351.479C118 337.546 121.653 323.891 131.835 313.718Z"/><defs><linearGradient id="gradient_2" gradientUnits="userSpaceOnUse" x1="255.24889" y1="277.72885" x2="253.30579" y2="377.46716"><stop offset="0" stop-color="#03D1E4"/><stop offset="1" stop-color="#0253FD"/></linearGradient></defs><path fill="url(#gradient_2)" transform="scale(2 2)" d="M131.835 313.718C139.453 303.341 152.623 299.256 164.155 295.034C172.208 292.086 207.821 278.085 214.733 277.29C215.284 295.623 232.543 309.084 250.226 308.547C265.426 308.085 282.742 294.756 281.514 278.298C284.883 278.788 288.56 280.427 291.812 281.494L337.661 296.49C364.246 305.429 379.097 319.943 381.045 348.653C381.175 357.849 381.031 367.055 381.045 376.252L217.529 376.253C191.429 376.174 165.891 374.939 139.489 375.596C139.153 365.978 138.773 348.701 140.835 340.118C140.978 333.337 145.95 324.378 148.472 318.17L148.386 318.089L148.641 317.71C147.414 318.768 147.454 321.421 145.791 321.617C143.321 321.907 128.956 321.883 127.436 320.686L127.372 320.077C128.306 317.977 130.541 315.917 132.037 314.128L131.835 313.718Z"/><path fill="#FE8373" transform="scale(2 2)" d="M142.595 145.461C142.874 140.217 144.371 134.702 145.911 129.692C159.909 84.1455 203.065 51.0491 251.42 53.693C304.632 56.6025 352.296 101.923 352.437 155.854C352.607 202.734 330.198 238.345 287.983 257.129C286.437 258.511 281.517 261.309 281.514 263.488C281.689 268.408 281.54 273.373 281.514 278.298C282.742 294.756 265.426 308.085 250.226 308.547C232.543 309.084 215.284 295.623 214.733 277.29C214.83 272.981 214.448 268.635 214.733 264.338C212.054 261.866 209.167 259.936 206.168 257.886C170.674 242.011 143.837 206.009 142.048 166.694C141.328 161.92 142.026 150.056 142.595 145.461Z"/><path fill="#FD4242" transform="scale(2 2)" d="M142.595 145.461C143.855 147.349 142.045 158.585 142.055 161.789C142.171 199.943 163.825 230.829 194.414 251.347C194.504 250.882 194.579 250.464 194.571 249.989L194.989 249.595L195.044 249.623C195.74 249.352 196.392 249.55 197.101 249.68L197.526 250.003C197.639 250.944 196.682 251.377 196.399 252.226L196.456 251.884L196.419 252.24C198.86 254.23 202.133 254.976 204.682 256.654C204.538 256.17 197.234 246.733 196.848 246.374C192.422 242.25 186.674 239.491 182.095 235.401C162.112 217.554 146.161 190.455 144.78 163.275C144.507 157.889 144.982 137.201 144.912 152.15C144.775 181.322 153.556 204.272 173.636 226.218C178.313 231.33 190.12 243.035 196.401 245.014C197.918 247.001 205.785 256.868 206.168 257.886C170.674 242.011 143.837 206.009 142.048 166.694C141.328 161.92 142.026 150.056 142.595 145.461Z"/><path fill="#475AA6" transform="scale(2 2)" d="M187.564 218.695C182.375 217.835 177.275 213.161 175.614 208.304C173.511 202.154 174.894 164.671 176.006 158.432C188.177 90.1432 288.719 76.7583 313.851 148.694C318.036 160.673 316.818 172.463 316.804 184.924L316.846 198.52C316.894 207.873 316.712 215.355 306.102 218.695C306.468 209.563 307.311 178.455 305.669 170.095C304.058 161.892 289.351 161.535 283.081 160.247C259.812 155.467 267.598 153.59 248.069 164.028C233.937 171.581 218.465 177.047 202.289 177.262C197.247 177.276 192.55 176.545 187.564 176.152L187.564 218.695Z"/><path fill="#FDA68C" transform="scale(2 2)" d="M202.289 177.262C218.465 177.047 233.937 171.581 248.069 164.028C267.598 153.59 259.812 155.467 283.081 160.247C289.351 161.535 304.058 161.892 305.669 170.095C307.311 178.455 306.468 209.563 306.102 218.695C305.306 221.239 305.355 223.908 304.86 226.506C301.572 243.745 295.686 245.277 287.983 257.129C286.437 258.511 281.517 261.309 281.514 263.488C281.689 268.408 281.54 273.373 281.514 278.298C282.742 294.756 265.426 308.085 250.226 308.547C232.543 309.084 215.284 295.623 214.733 277.29C214.83 272.981 214.448 268.635 214.733 264.338C212.054 261.866 209.167 259.936 206.168 257.886C205.785 256.868 197.918 247.001 196.401 245.014C194.598 240.122 191.75 235.792 190.147 230.732C188.937 226.911 188.813 221.99 187.564 218.695L187.564 176.152C192.55 176.545 197.247 177.276 202.289 177.262Z"/><path fill="#FC975A" transform="scale(2 2)" d="M187.564 176.152C192.55 176.545 197.247 177.276 202.289 177.262L202.274 201.51C202.278 216.473 202.101 227.962 209.473 241.665C218.284 258.044 236.87 272.143 255.887 272.023L256.256 272.019C254.253 273.667 250.082 273.443 247.647 273.508C229.856 273.981 228.595 270.848 214.95 264.438L214.733 264.338C212.054 261.866 209.167 259.936 206.168 257.886C205.785 256.868 197.918 247.001 196.401 245.014C194.598 240.122 191.75 235.792 190.147 230.732C188.937 226.911 188.813 221.99 187.564 218.695L187.564 176.152Z"/></svg> 