<svg width="129" height="13" viewBox="0 0 129 13" fill="none" xmlns="http://www.w3.org/2000/svg">
<path d="M118.771 1.6C115.973 1.3 113.127 1 110.281 0.7C109.364 0.6 108.399 0.6 107.483 0.5C105.457 0.4 103.43 0.3 101.404 0.2C100.295 0.1 99.1369 0.1 98.0273 0C97.6896 0 97.352 0 97.0625 0C96.3389 0 95.6152 0 94.8434 0C91.5147 0 88.186 0 84.8573 0C84.0855 0 83.2654 0 82.4935 0.1C80.5156 0.2 78.5859 0.2 76.608 0.3C74.3889 0.4 72.1697 0.4 69.9506 0.5C66.3807 0.7 62.7626 0.9 59.1927 1.1C57.1183 1.2 55.0439 1.3 52.9695 1.4C49.3996 1.7 45.8297 2 42.2598 2.3C40.2819 2.5 38.3522 2.6 36.3743 2.8C32.6597 3.3 28.9451 3.7 25.2305 4.1C23.2525 4.3 21.2746 4.5 19.2967 4.8C15.6303 5.4 11.9157 6.1 8.24935 6.8C7.47748 6.9 6.65737 7.1 5.83726 7.2C4.29352 7.5 2.70154 8 1.10956 8.4C1.01308 8.4 0.916594 8.5 0.820111 8.5C0.627143 8.5 0.482418 8.7 0.337693 9C0.0964836 9.5 0 10.1 0 10.7C0 11.3 0.0964836 11.9 0.337693 12.3C0.53066 12.7 0.868352 13 1.10956 13C3.03923 12.6 4.92066 12.1 6.85034 11.7C8.63528 11.4 10.4202 11.1 12.2052 10.8C14.1348 10.5 16.0645 10.1 18.0424 9.8C18.8143 9.7 19.5862 9.5 20.4063 9.4C23.4455 9.1 26.4365 8.7 29.4757 8.4C31.3572 8.2 33.2386 8 35.12 7.8C35.8919 7.7 36.6638 7.6 37.4356 7.5C40.4266 7.2 43.4176 7 46.4086 6.7C48.2418 6.6 50.0267 6.4 51.8599 6.3C52.4871 6.3 53.066 6.2 53.6931 6.2C56.9253 6 60.1575 5.9 63.3897 5.7C65.1747 5.6 67.0079 5.5 68.7928 5.4C69.42 5.4 70.0953 5.3 70.7225 5.3C74.0512 5.2 77.3798 5.2 80.7568 5.1C82.8312 5.1 84.9056 5 86.98 5C90.5016 5 94.0715 5 97.5932 5.1C98.2685 5.1 98.9922 5.2 99.6676 5.2C101.645 5.3 103.575 5.4 105.553 5.6C107 5.7 108.496 5.8 109.943 5.9C111.004 6 112.017 6.1 113.079 6.2C116.118 6.5 119.205 6.9 122.245 7.3C123.017 7.4 123.788 7.5 124.56 7.6C125.38 7.7 126.249 7.8 127.069 8C127.214 8 127.31 8.1 127.455 8.2C127.793 8.3 128.082 8.3 128.371 7.9C128.661 7.6 128.854 7 128.95 6.4C129.143 5.1 128.757 3.7 128.082 3.3C127.503 3 126.924 2.9 126.394 2.7C126.008 2.6 125.622 2.5 125.236 2.5C124.464 2.3 123.692 2.3 122.968 2.1C121.618 2 120.17 1.8 118.771 1.6Z" fill="#3BABFF"/>
</svg>
